# xmcd CD database file
#
# Track frame offsets:
#	150
#	69303
#	110397
#	159302
#
# Disc length: 2465 seconds
#
# Revision: 0
# Processed by: cddbd v1.5.2PL0 Copyright (c) Steve Scherf et al.
# Submitted via: CDex 1.70beta3
#
DISCID=27099f04
DTITLE=Bonjintan - Bonjintan
DYEAR=2017
DGENRE=Jazz
TTITLE0=Dance
TTITLE1=Nosagyo
TTITLE2=Ondo no Hunauta
TTITLE3=Lonely Woman
EXTD=YEAR: 2017
EXTT0=
EXTT1=
EXTT2=
EXTT3=
PLAYORDER=
